<?xml version="1.0" encoding="UTF-8" standalone="no"?>
<!DOCTYPE svg PUBLIC "-//W3C//DTD SVG 1.1//EN" "http://www.w3.org/Graphics/SVG/1.1/DTD/svg11.dtd">
<svg version="1.1" xmlns="http://www.w3.org/2000/svg" xmlns:xlink="http://www.w3.org/1999/xlink" preserveAspectRatio="xMidYMid meet" viewBox="101.34375000000003 154.25 71.28125000000006 80" width="66.28" height="75"><defs><path d="M112.39 192.32L112.79 191L113.41 189.84L114.23 188.87L115.22 188.14L116.33 187.67L117.54 187.5L169.63 187.5L169.63 200L117.54 200L116.33 199.83L115.22 199.36L114.23 198.63L113.41 197.66L112.79 196.5L112.39 195.18L112.25 193.75L112.25 193.75L112.39 192.32Z" id="d2vS8ewlCu"></path><path d="M159.1 214.69L159.72 215.87L160.11 217.2L160.25 218.66L160.11 220.11L159.72 221.45L159.1 222.62L158.29 223.61L157.31 224.35L156.21 224.83L155.01 225L103.41 225L103.41 212.31L155.01 212.31L155.01 212.31L156.21 212.48L157.31 212.96L158.29 213.71L158.29 213.71L159.1 214.69Z" id="hAUDeA4Ei"></path><path d="M160.96 166L161.36 167.32L161.5 168.75L161.36 170.18L160.96 171.5L160.32 172.66L159.49 173.63L158.5 174.36L157.37 174.83L156.15 175L103.47 175L103.47 162.5L156.15 162.5L157.37 162.67L158.5 163.14L159.49 163.87L160.32 164.84L160.32 164.84L160.96 166Z" id="b134SJ2k3V"></path><path d="M125 181.25C140.64 181.25 150.41 181.25 154.32 181.25C157.81 181.25 161.16 179.89 163.67 177.47C165.69 175.51 162.94 178.17 163.74 177.4C169.07 172.24 168.68 163.58 162.9 158.93C162.23 158.39 165.03 160.64 162.84 158.88C160.73 157.18 158.09 156.25 155.38 156.25C148.46 156.25 131.15 156.25 103.47 156.25" id="g4xZGV4k0"></path><path d="M150 206.25C132.82 206.25 122.08 206.25 117.78 206.25C114.66 206.25 111.68 204.95 109.56 202.67C107.71 200.67 109.65 202.76 108.84 201.89C104.14 196.83 104.5 188.91 109.64 184.31C110.32 183.7 108.26 185.55 110.25 183.77C112.06 182.15 114.4 181.25 116.83 181.25C117.08 181.25 117.73 181.25 118.75 181.25" id="b2DLFwoGkn"></path><path d="M103.34 231.25C131.73 231.25 149.46 231.25 156.56 231.25C159.31 231.25 161.92 230.02 163.68 227.9C165.36 225.86 164.18 227.29 165 226.29C169.04 221.41 168.71 214.26 164.25 209.76C163.55 209.06 164.92 210.44 163.12 208.63C161.61 207.11 159.55 206.25 157.41 206.25C157.25 206.25 156.87 206.25 156.25 206.25" id="c1wlSGJ9mA"></path></defs><g><g><use xlink:href="#d2vS8ewlCu" opacity="1" fill="#454ADE" fill-opacity="1"></use></g><g><use xlink:href="#hAUDeA4Ei" opacity="1" fill="#454ADE" fill-opacity="1"></use></g><g><use xlink:href="#b134SJ2k3V" opacity="1" fill="#454ADE" fill-opacity="1"></use></g><g><g><use xlink:href="#g4xZGV4k0" opacity="1" fill-opacity="0" stroke="#f6f2ff" stroke-width="4" stroke-opacity="1"></use></g></g><g><g><use xlink:href="#b2DLFwoGkn" opacity="1" fill-opacity="0" stroke="#f6f2ff" stroke-width="4" stroke-opacity="1"></use></g></g><g><g><use xlink:href="#c1wlSGJ9mA" opacity="1" fill-opacity="0" stroke="#f6f2ff" stroke-width="4" stroke-opacity="1"></use></g></g></g></svg>