<?xml version="1.0" encoding="UTF-8" standalone="no"?>
<!DOCTYPE svg PUBLIC "-//W3C//DTD SVG 1.1//EN" "http://www.w3.org/Graphics/SVG/1.1/DTD/svg11.dtd">
<svg version="1.1" xmlns="http://www.w3.org/2000/svg" xmlns:xlink="http://www.w3.org/1999/xlink" preserveAspectRatio="xMidYMid meet" viewBox="261.48245614035113 279.1666666666666 79.00000000000006 79.00000000000011" width="75" height="75"><defs><path d="M337.48 280.17C337.48 309.19 337.48 327.34 337.48 334.59C337.48 345.96 328.27 355.17 316.91 355.17C309.65 355.17 291.51 355.17 262.48 355.17C262.48 329.28 262.48 313.1 262.48 306.63C262.48 292.02 274.33 280.17 288.95 280.17C295.42 280.17 311.6 280.17 337.48 280.17Z" id="g2E5Iq18cQ"></path><path d="M281.72 297.52C298.59 297.52 309.12 297.52 313.34 297.52C313.99 297.52 314.63 297.69 315.19 298.02C316.89 299.02 315.02 297.92 315.19 298.02C319.13 300.34 319.29 305.98 315.49 308.51C315.25 308.66 317.13 307.41 315.48 308.51C314.73 309.01 313.85 309.28 312.94 309.28C308.78 309.28 298.37 309.28 281.72 309.28" id="a28gtJXMyG"></path><path d="M281.72 299.9C298.58 299.9 309.11 299.9 313.32 299.9C313.71 299.9 314.09 300 314.42 300.2C315.44 300.79 314.32 300.14 314.42 300.2C316.77 301.58 316.86 304.93 314.6 306.44C314.46 306.53 315.58 305.79 314.6 306.44C314.15 306.74 313.63 306.9 313.09 306.9C308.91 306.9 298.45 306.9 281.72 306.9L281.72 299.9Z" id="b3YCU1Jv21"></path><path d="M281.72 314.12C298.76 314.12 309.41 314.12 313.67 314.12C314.32 314.12 314.96 314.29 315.52 314.62C317.22 315.62 315.35 314.52 315.52 314.62C319.46 316.94 319.62 322.58 315.82 325.11C315.59 325.26 317.46 324.01 315.82 325.11C315.07 325.61 314.18 325.88 313.28 325.88C309.87 325.88 301.34 325.88 287.7 325.88L281.72 325.88" id="a1XXZxuGZ"></path><path d="M281.72 316.5C298.58 316.5 309.11 316.5 313.32 316.5C313.71 316.5 314.09 316.6 314.42 316.8C315.44 317.39 314.32 316.74 314.42 316.8C316.77 318.18 316.86 321.53 314.6 323.04C314.46 323.13 315.58 322.39 314.6 323.04C314.15 323.34 313.63 323.5 313.09 323.5C308.91 323.5 298.45 323.5 281.72 323.5L281.72 316.5Z" id="c7RhGigvEY"></path><path d="M281.72 330.72C298.76 330.72 309.41 330.72 313.67 330.72C314.32 330.72 314.96 330.89 315.52 331.22C317.22 332.22 315.35 331.12 315.52 331.22C319.46 333.54 319.62 339.18 315.82 341.71C315.59 341.86 317.46 340.61 315.82 341.71C315.07 342.21 314.18 342.48 313.28 342.48C309.07 342.48 298.55 342.48 281.72 342.48" id="a3LO8NnhN"></path><path d="M281.72 333.1C298.58 333.1 309.11 333.1 313.32 333.1C313.71 333.1 314.09 333.2 314.42 333.4C315.44 333.99 314.32 333.34 314.42 333.4C316.77 334.78 316.86 338.13 314.6 339.64C314.46 339.73 315.58 338.99 314.6 339.64C314.15 339.94 313.63 340.1 313.09 340.1C308.91 340.1 298.45 340.1 281.72 340.1L281.72 333.1Z" id="a2xOpR9EB0"></path></defs><g><g><use xlink:href="#g2E5Iq18cQ" opacity="1" fill="#9a3de1" fill-opacity="1"></use></g><g><g><use xlink:href="#a28gtJXMyG" opacity="1" fill-opacity="0" stroke="#ffffff" stroke-width="2" stroke-opacity="1"></use></g></g><g><use xlink:href="#b3YCU1Jv21" opacity="1" fill="#ffffff" fill-opacity="1"></use></g><g><g><use xlink:href="#a1XXZxuGZ" opacity="1" fill-opacity="0" stroke="#ffffff" stroke-width="2" stroke-opacity="1"></use></g></g><g><use xlink:href="#c7RhGigvEY" opacity="1" fill="#ffffff" fill-opacity="1"></use></g><g><g><use xlink:href="#a3LO8NnhN" opacity="1" fill-opacity="0" stroke="#ffffff" stroke-width="2" stroke-opacity="1"></use></g></g><g><use xlink:href="#a2xOpR9EB0" opacity="1" fill="#ffffff" fill-opacity="1"></use></g></g></svg>