<?xml version="1.0" encoding="UTF-8" standalone="no"?>
<!DOCTYPE svg PUBLIC "-//W3C//DTD SVG 1.1//EN" "http://www.w3.org/Graphics/SVG/1.1/DTD/svg11.dtd">
<svg version="1.1" xmlns="http://www.w3.org/2000/svg" xmlns:xlink="http://www.w3.org/1999/xlink" preserveAspectRatio="xMidYMid meet" viewBox="1.8145197458739402 5.709678100320723 638.3709605082522 630.5806437993585" width="634.37" height="626.58"><defs><path d="M206.44 222.08C206.44 341.03 302.87 437.45 421.81 437.45C540.76 437.45 637.19 341.03 637.19 222.08C637.06 103.19 540.71 6.84 421.81 6.71C302.87 6.71 206.44 103.13 206.44 222.08ZM229.94 222.08C229.94 116.11 315.84 30.2 421.81 30.2C527.78 30.2 613.69 116.11 613.69 222.08C613.56 328 527.73 413.83 421.81 413.96C315.84 413.96 229.94 328.05 229.94 222.08Z" id="b6OwkQkxs"></path><path d="M133.39 296.65C133.41 296.6 133.43 296.54 133.45 296.48C141.84 272.91 155.56 251.61 173.55 234.22C178.09 229.58 178.01 222.14 173.37 217.61C168.92 213.26 161.86 213.13 157.26 217.3C136.64 237.22 120.9 261.64 111.29 288.65C109.02 294.73 112.11 301.5 118.19 303.76C118.26 303.79 118.34 303.82 118.41 303.84C124.54 305.99 131.24 302.78 133.39 296.65Z" id="etTvZPlof"></path><path d="M151.08 443.18C151.08 440.96 150.46 438.78 149.27 436.9C133.5 412.09 124.84 383.44 124.21 354.04C124.08 347.56 118.72 342.4 112.23 342.53C105.74 342.66 100.59 348.03 100.72 354.51C101.4 388.17 111.29 421 129.3 449.43C131.47 452.87 135.26 454.95 139.33 454.92C145.81 454.92 151.08 449.67 151.08 443.18Z" id="asFlHx6Z7"></path><path d="M327.05 506.53C320.78 508.19 317.04 514.63 318.71 520.9C320.38 527.17 326.81 530.9 333.08 529.24C333.08 529.24 333.08 529.24 333.08 529.24C365.61 520.58 395.16 503.2 418.52 478.96C423.16 474.42 423.24 466.99 418.71 462.35C414.17 457.71 406.73 457.63 402.09 462.17C401.93 462.33 401.77 462.5 401.61 462.67C381.23 483.76 355.44 498.95 327.05 506.53Z" id="b2MTstn7mb"></path><path d="M188.59 479.74C183.4 475.85 176.03 476.9 172.14 482.09C168.25 487.28 169.3 494.65 174.49 498.54C201.39 518.79 233.33 531.27 266.83 534.64C266.94 534.64 267.88 534.64 268 534.64C274.49 534.97 280.01 529.97 280.33 523.48C280.66 517 275.66 511.47 269.17 511.15C239.9 508.18 212.06 497.34 188.59 479.74Z" id="j3bBUEg5Nl"></path><path d="M26.31 491.73C26.32 487.2 26.58 482.67 27.1 478.18C27.83 471.69 23.17 465.83 16.68 465.1C10.19 464.36 4.34 469.03 3.6 475.51C3.04 480.9 2.78 486.31 2.82 491.73C2.8 503.39 4.22 515.02 7.05 526.34C8.38 531.57 13.09 535.21 18.48 535.19C24.97 535.22 30.25 529.98 30.28 523.49C30.28 522.5 30.16 521.51 29.92 520.55C27.48 511.17 26.3 501.47 26.31 491.73Z" id="a33ryd3f0X"></path><path d="M39.31 437.53C45.92 424.84 54.79 413.45 65.47 403.93C70.06 399.34 70.05 391.9 65.46 387.32C61.23 383.09 54.48 382.72 49.81 386.47C37.01 397.9 26.39 411.57 18.48 426.8C15.58 432.58 17.89 439.61 23.65 442.54C29.37 445.41 36.33 443.19 39.31 437.53Z" id="by5LxleWb"></path><path d="M199.55 596.12C193.69 598.9 191.18 605.9 193.96 611.77C196.73 617.63 203.73 620.13 209.6 617.36C209.91 617.21 210.22 617.05 210.52 616.88C225.64 608.93 239.19 598.32 250.54 585.55C254.86 580.68 254.42 573.23 249.56 568.91C244.69 564.58 237.24 565.02 232.91 569.89C223.48 580.53 212.17 589.44 199.55 596.12Z" id="e5G9z3r0qz"></path><path d="M47.46 559.23C43.74 553.91 36.41 552.62 31.09 556.34C25.77 560.06 24.47 567.39 28.19 572.71C28.19 572.71 28.19 572.71 28.19 572.71C37.99 586.75 50.25 598.9 64.38 608.57C69.6 612.42 76.95 611.3 80.8 606.08C84.65 600.85 83.53 593.5 78.31 589.65C78.1 589.51 77.9 589.36 77.69 589.23C65.89 581.09 55.65 570.95 47.46 559.23Z" id="aUii7Dse"></path><path d="M158.98 608.89C144.8 610.62 130.43 609.79 116.54 606.46C110.22 604.92 103.86 608.8 102.32 615.11C100.79 621.43 104.66 627.79 110.97 629.33C127.61 633.33 144.82 634.31 161.8 632.23C168.29 631.43 172.9 625.52 172.1 619.03C171.3 612.54 165.39 607.93 158.9 608.73C158.92 608.76 158.97 608.86 158.98 608.89Z" id="eWIbs0TE2"></path></defs><g><g><use xlink:href="#b6OwkQkxs" opacity="1" fill="#fbfbfb" fill-opacity="1"></use><g><use xlink:href="#b6OwkQkxs" opacity="1" fill-opacity="0" stroke="#000000" stroke-width="1" stroke-opacity="0"></use></g></g><g><use xlink:href="#etTvZPlof" opacity="1" fill="#fbfbfb" fill-opacity="1"></use><g><use xlink:href="#etTvZPlof" opacity="1" fill-opacity="0" stroke="#000000" stroke-width="1" stroke-opacity="0"></use></g></g><g><use xlink:href="#asFlHx6Z7" opacity="1" fill="#fbfbfb" fill-opacity="1"></use><g><use xlink:href="#asFlHx6Z7" opacity="1" fill-opacity="0" stroke="#000000" stroke-width="1" stroke-opacity="0"></use></g></g><g><use xlink:href="#b2MTstn7mb" opacity="1" fill="#fbfbfb" fill-opacity="1"></use><g><use xlink:href="#b2MTstn7mb" opacity="1" fill-opacity="0" stroke="#000000" stroke-width="1" stroke-opacity="0"></use></g></g><g><use xlink:href="#j3bBUEg5Nl" opacity="1" fill="#fbfbfb" fill-opacity="1"></use><g><use xlink:href="#j3bBUEg5Nl" opacity="1" fill-opacity="0" stroke="#000000" stroke-width="1" stroke-opacity="0"></use></g></g><g><use xlink:href="#a33ryd3f0X" opacity="1" fill="#fbfbfb" fill-opacity="1"></use><g><use xlink:href="#a33ryd3f0X" opacity="1" fill-opacity="0" stroke="#000000" stroke-width="1" stroke-opacity="0"></use></g></g><g><use xlink:href="#by5LxleWb" opacity="1" fill="#fbfbfb" fill-opacity="1"></use><g><use xlink:href="#by5LxleWb" opacity="1" fill-opacity="0" stroke="#000000" stroke-width="1" stroke-opacity="0"></use></g></g><g><use xlink:href="#e5G9z3r0qz" opacity="1" fill="#fbfbfb" fill-opacity="1"></use><g><use xlink:href="#e5G9z3r0qz" opacity="1" fill-opacity="0" stroke="#000000" stroke-width="1" stroke-opacity="0"></use></g></g><g><use xlink:href="#aUii7Dse" opacity="1" fill="#fbfbfb" fill-opacity="1"></use><g><use xlink:href="#aUii7Dse" opacity="1" fill-opacity="0" stroke="#000000" stroke-width="1" stroke-opacity="0"></use></g></g><g><use xlink:href="#eWIbs0TE2" opacity="1" fill="#fbfbfb" fill-opacity="1"></use><g><use xlink:href="#eWIbs0TE2" opacity="1" fill-opacity="0" stroke="#000000" stroke-width="1" stroke-opacity="0"></use></g></g></g></svg>