<?xml version="1.0" encoding="UTF-8" standalone="no"?>
<!DOCTYPE svg PUBLIC "-//W3C//DTD SVG 1.1//EN" "http://www.w3.org/Graphics/SVG/1.1/DTD/svg11.dtd">
<svg version="1.1" xmlns="http://www.w3.org/2000/svg" xmlns:xlink="http://www.w3.org/1999/xlink" preserveAspectRatio="xMidYMid meet" viewBox="0 0 640 640" width="640" height="640"><defs><path d="M518.31 11.25C514.15 7.09 507.41 7.09 503.25 11.25C490.15 24.35 424.65 89.84 306.76 207.73C235.59 137.7 196.05 98.8 188.14 91.02C188.05 90.93 187.93 90.87 187.83 90.78C187.44 90.42 187.02 90.11 186.57 89.81C186.36 89.67 186.16 89.51 185.94 89.38C185.41 89.08 184.85 88.85 184.27 88.64C184.12 88.59 183.99 88.49 183.84 88.44C167.78 83.42 39.25 43.27 23.19 38.25C19.42 37.08 15.28 38.08 12.48 40.88C9.67 43.69 8.66 47.81 9.85 51.59C14.87 67.65 55.03 196.17 60.05 212.24C60.35 213.21 60.82 214.11 61.38 214.94C61.56 215.21 61.77 215.43 61.97 215.68C62.24 216.01 62.45 216.36 62.75 216.65C70.65 224.43 110.15 263.29 181.25 333.24C79.25 435.24 22.58 491.91 11.25 503.24C7.09 507.4 7.09 514.14 11.25 518.3C22.3 529.35 110.65 617.71 121.7 628.76C123.69 630.75 126.41 631.87 129.23 631.87C132.06 631.87 134.76 630.75 136.76 628.76C148.21 617.31 205.46 560.06 308.51 457.01C391.89 538.04 438.21 583.05 447.47 592.06C449.25 593.77 451.48 594.6 453.76 594.85C469.87 609.79 490.66 618.06 512.77 618.06C536 618.06 557.85 609.02 574.27 592.59C607.73 559.13 608.11 504.99 575.53 470.98C575.01 469.21 574.09 467.58 572.74 466.28C563.45 457.34 516.99 412.63 433.37 332.14C550.6 214.91 615.73 149.78 628.76 136.75C632.91 132.58 632.91 125.85 628.75 121.69C606.66 99.6 529.35 22.29 518.31 11.25ZM159.54 132.71C137.28 139.26 124.91 142.9 122.44 143.62C118.96 144.65 116.25 147.36 115.22 150.84C114.5 153.31 110.86 165.68 104.32 187.94L77.26 195.89L36.24 64.65L167.5 105.66L159.54 132.71ZM33.84 510.77L73.97 470.64C102.58 499.26 118.48 515.15 121.66 518.33C123.74 520.41 126.46 521.45 129.19 521.45C131.91 521.45 134.64 520.41 136.72 518.33C140.88 514.17 140.88 507.43 136.72 503.27C133.54 500.09 117.65 484.2 89.03 455.58L128.11 416.5C156.72 445.12 172.62 461.02 175.8 464.19C177.88 466.27 180.61 467.31 183.33 467.31C186.06 467.31 188.79 466.27 190.87 464.19C195.03 460.03 195.03 453.3 190.87 449.14C187.69 445.96 171.79 430.06 143.18 401.45L196.49 348.13L293.24 442.16L129.22 606.17L33.84 510.77ZM471.89 582.46C481.11 573.23 554.91 499.44 564.13 490.22C584.64 515.98 583.02 553.7 559.19 577.52C535.36 601.34 497.65 602.97 471.89 582.46ZM203.14 324.9L90.59 214.17C105.78 209.71 114.22 207.23 115.9 206.73C119.38 205.71 122.1 202.99 123.12 199.52C123.85 197.04 127.48 184.68 134.03 162.42C156.29 155.87 168.66 152.23 171.13 151.51C174.61 150.48 177.33 147.77 178.35 144.29C178.85 142.58 181.36 134.04 185.89 118.67L410.57 339.73L550.15 474.09L454.78 569.46L203.14 324.9ZM321.94 222.67L376.6 168.01C405.21 196.62 421.11 212.52 424.29 215.7C426.37 217.78 429.1 218.81 431.82 218.81C434.55 218.81 437.28 217.78 439.36 215.7C443.52 211.54 443.52 204.79 439.36 200.64C436.18 197.46 420.28 181.56 391.67 152.95L436.07 108.54C464.68 137.16 480.58 153.05 483.76 156.23C485.84 158.31 488.57 159.35 491.29 159.35C494.02 159.35 496.75 158.31 498.83 156.23C502.99 152.08 502.99 145.33 498.83 141.18C495.65 138 479.75 122.1 451.14 93.49L510.79 33.83L606.16 129.22L418.1 317.29L321.94 222.67Z" id="aSJvd83En"></path></defs><g><g><g><use xlink:href="#aSJvd83En" opacity="1" fill="#fbfbfb" fill-opacity="1"></use><g><use xlink:href="#aSJvd83En" opacity="1" fill-opacity="0" stroke="#000000" stroke-width="0" stroke-opacity="0"></use></g></g></g></g></svg>