<?xml version="1.0" encoding="UTF-8" standalone="no"?>
<!DOCTYPE svg PUBLIC "-//W3C//DTD SVG 1.1//EN" "http://www.w3.org/Graphics/SVG/1.1/DTD/svg11.dtd">
<svg version="1.1" xmlns="http://www.w3.org/2000/svg" xmlns:xlink="http://www.w3.org/1999/xlink" preserveAspectRatio="xMidYMid meet" viewBox="0 0 640 640" width="640" height="640"><defs><path d="M230.32 330.94C262.43 327.17 287.23 304.21 287.23 276.47C287.23 248.75 262.43 225.81 230.32 222.03C230.32 214.73 230.32 156.29 230.32 148.98C252.21 152.29 268.77 167.12 268.77 184.88C268.77 189.98 272.9 194.11 278 194.11C283.1 194.11 287.23 189.98 287.23 184.88C287.23 157.13 262.42 134.17 230.32 130.42C230.32 126.06 230.32 91.2 230.32 86.84C230.32 81.74 226.19 77.61 221.09 77.61C215.99 77.61 211.86 81.74 211.86 86.84C211.86 91.2 211.86 126.07 211.86 130.43C179.73 134.18 154.9 157.14 154.9 184.89C154.9 212.61 179.73 235.55 211.86 239.3C211.86 246.61 211.86 305.09 211.86 312.4C189.95 309.1 173.36 294.25 173.36 276.47C173.36 271.37 169.23 267.24 164.13 267.24C159.03 267.24 154.9 271.37 154.9 276.47C154.9 304.25 179.73 327.22 211.86 330.96C211.86 335.31 211.86 370.16 211.86 374.52C211.86 379.62 215.99 383.75 221.09 383.75C226.19 383.75 230.32 379.61 230.32 374.51C230.32 365.8 230.32 335.3 230.32 330.94ZM230.32 312.38C230.32 305.2 230.32 247.77 230.32 240.6C252.21 243.92 268.77 258.73 268.77 276.47C268.77 294.22 252.21 309.05 230.32 312.38ZM211.86 148.99C211.86 156.16 211.86 213.56 211.86 220.73C189.95 217.43 173.36 202.62 173.36 184.89C173.36 167.12 189.95 152.29 211.86 148.99Z" id="an5rP7PrL"></path><path d="M221.04 35.56C113.45 35.56 25.92 123.08 25.92 230.66C25.92 338.24 113.45 425.77 221.04 425.77C328.63 425.77 416.16 338.24 416.16 230.66C416.16 123.08 328.63 35.56 221.04 35.56ZM221.04 54.02C318.46 54.02 397.7 133.26 397.7 230.66C397.7 328.07 318.46 407.31 221.04 407.31C123.63 407.31 44.38 328.07 44.38 230.66C44.38 133.26 123.63 54.02 221.04 54.02Z" id="a2OYacN7S"></path><path d="M589.65 333.23C588.39 328.31 583.35 325.34 578.45 326.58C570.95 328.48 511.01 343.66 503.52 345.56C498.58 346.8 495.59 351.83 496.84 356.77C498.08 361.71 503.13 364.7 508.05 363.45C511.62 362.55 529.48 358.03 561.62 349.89L464.19 501.48C426.46 446.48 405.5 415.92 401.31 409.81C399.51 407.19 396.62 405.88 393.29 405.81C390.11 405.95 387.23 407.72 385.66 410.49C380.02 420.47 351.84 470.36 301.11 560.17C247.52 520.95 217.74 499.17 211.79 494.81C207.98 492.02 202.65 492.56 199.48 496.09C190.19 506.41 115.89 589.01 106.61 599.34C103.19 603.13 103.51 608.97 107.3 612.37C109.06 613.96 111.27 614.74 113.47 614.74C115.99 614.74 118.51 613.71 120.33 611.69C126.15 605.22 155.25 572.87 207.62 514.64C262.2 554.58 292.53 576.77 298.59 581.21C300.72 582.77 303.43 583.35 305.99 582.78C308.57 582.23 310.78 580.59 312.08 578.3C317.57 568.58 345.03 519.97 394.46 432.47C431.88 487.03 452.67 517.33 456.83 523.4C458.58 525.94 461.44 527.46 464.58 527.4C467.67 527.35 470.54 525.77 472.21 523.16C479.22 512.25 514.27 457.72 577.35 359.56C585.63 391.79 590.22 409.7 591.14 413.28C592.21 417.45 595.97 420.21 600.08 420.21C600.83 420.21 601.61 420.12 602.37 419.92C607.31 418.65 610.29 413.61 609.02 408.68C605.15 393.59 591.59 340.78 589.65 333.23Z" id="e2a5B7imyW"></path></defs><g><g><g><use xlink:href="#an5rP7PrL" opacity="1" fill="#fbfbfb" fill-opacity="1"></use><g><use xlink:href="#an5rP7PrL" opacity="1" fill-opacity="0" stroke="#000000" stroke-width="10" stroke-opacity="0"></use></g></g><g><use xlink:href="#a2OYacN7S" opacity="1" fill="#fbfbfb" fill-opacity="1"></use><g><use xlink:href="#a2OYacN7S" opacity="1" fill-opacity="0" stroke="#000000" stroke-width="10" stroke-opacity="0"></use></g></g><g><use xlink:href="#e2a5B7imyW" opacity="1" fill="#fbfbfb" fill-opacity="1"></use><g><use xlink:href="#e2a5B7imyW" opacity="1" fill-opacity="0" stroke="#000000" stroke-width="10" stroke-opacity="0"></use></g></g></g></g></svg>