<?xml version="1.0" encoding="UTF-8" standalone="no"?>
<!DOCTYPE svg PUBLIC "-//W3C//DTD SVG 1.1//EN" "http://www.w3.org/Graphics/SVG/1.1/DTD/svg11.dtd">
<svg version="1.1" xmlns="http://www.w3.org/2000/svg" xmlns:xlink="http://www.w3.org/1999/xlink" preserveAspectRatio="xMidYMid meet" viewBox="-1.0000000000000568 -1 644 644" width="640" height="640"><defs><path d="M175.74 447.75L271.75 351.92L223.74 304L127.73 399.83L175.74 447.75ZM128 0C57.31 0 0 57.31 0 128C0 166.4 0 473.6 0 512C0 582.69 57.31 640 128 640C166.4 640 473.6 640 512 640C582.69 640 640 582.69 640 512C640 473.6 640 166.4 640 128C640 57.31 582.69 0 512 0C512 0 166.4 0 128 0ZM480 576C448 576 192 576 160 576C106.98 576 64 533.02 64 480C64 448 64 192 64 160C64 106.98 106.98 64 160 64C192 64 448 64 480 64C533.02 64 576 106.98 576 160C576 181.33 576 288 576 480C547.35 544 515.35 576 480 576ZM512 448L512 384L352 384L352 448L512 448ZM223.74 304L271.75 351.92L319.75 304L175.74 160.25L127.73 208.16L223.74 304Z" id="c2tbHaEhP8"></path></defs><g><g><use xlink:href="#c2tbHaEhP8" opacity="1" fill="#fbfbfb" fill-opacity="1"></use><g><use xlink:href="#c2tbHaEhP8" opacity="1" fill-opacity="0" stroke="#000000" stroke-width="0" stroke-opacity="0"></use></g></g></g></svg>