<?xml version="1.0" encoding="UTF-8" standalone="no"?>
<!DOCTYPE svg PUBLIC "-//W3C//DTD SVG 1.1//EN" "http://www.w3.org/Graphics/SVG/1.1/DTD/svg11.dtd">
<svg version="1.1" xmlns="http://www.w3.org/2000/svg" xmlns:xlink="http://www.w3.org/1999/xlink" preserveAspectRatio="xMidYMid meet" viewBox="0 0 640 640" width="640" height="640"><defs><path d="M168.45 27C112.65 27 67.41 72.23 67.41 128.03C67.41 183.83 112.65 229.07 168.45 229.07C224.25 229.07 269.48 183.83 269.48 128.03C269.48 72.23 224.25 27 168.45 27Z" id="b1bRm517j4"></path><path d="M370.52 27C314.72 27 269.48 72.23 269.48 128.03C269.48 183.83 314.72 229.07 370.52 229.07C426.32 229.07 471.55 183.83 471.55 128.03C471.55 72.23 426.32 27 370.52 27Z" id="abf3mwHvE"></path><path d="M128.03 491.76C105.81 491.76 87.62 473.57 87.62 451.34C87.62 439.22 87.62 342.23 87.62 330.1C87.62 307.88 105.81 289.69 128.03 289.69C156.32 289.69 382.64 289.69 410.93 289.69C433.16 289.69 451.34 307.88 451.34 330.1C451.34 342.23 451.34 439.22 451.34 451.34C451.34 473.57 433.16 491.76 410.93 491.76C354.35 491.76 156.32 491.76 128.03 491.76Z" id="c7j9VC0Kz"></path><path d="M451.34 431.14L451.34 350.31L572.59 289.69L572.59 491.76L451.34 431.14Z" id="aiZ0UnRAZ"></path><path d="M188.66 613L269.48 491.76L350.31 613" id="aZHuKSmPN"></path><path d="M168.45 107.83C157.29 107.83 148.24 116.87 148.24 128.03C148.24 139.19 157.29 148.24 168.45 148.24C179.61 148.24 188.66 139.19 188.66 128.03C188.66 116.87 179.61 107.83 168.45 107.83Z" id="c7w4qIzBkX"></path><path d="M370.52 107.83C359.36 107.83 350.31 116.87 350.31 128.03C350.31 139.19 359.36 148.24 370.52 148.24C381.68 148.24 390.72 139.19 390.72 128.03C390.72 116.87 381.68 107.83 370.52 107.83Z" id="c1EMQP3kOY"></path></defs><g><g><g><use xlink:href="#b1bRm517j4" opacity="1" fill="#000000" fill-opacity="0"></use><g><use xlink:href="#b1bRm517j4" opacity="1" fill-opacity="0" stroke="#fbfbfb" stroke-width="36" stroke-opacity="1"></use></g></g><g><use xlink:href="#abf3mwHvE" opacity="1" fill="#000000" fill-opacity="0"></use><g><use xlink:href="#abf3mwHvE" opacity="1" fill-opacity="0" stroke="#fbfbfb" stroke-width="36" stroke-opacity="1"></use></g></g><g><use xlink:href="#c7j9VC0Kz" opacity="1" fill="#000000" fill-opacity="0"></use><g><use xlink:href="#c7j9VC0Kz" opacity="1" fill-opacity="0" stroke="#fbfbfb" stroke-width="36" stroke-opacity="1"></use></g></g><g><use xlink:href="#aiZ0UnRAZ" opacity="1" fill="#000000" fill-opacity="0"></use><g><use xlink:href="#aiZ0UnRAZ" opacity="1" fill-opacity="0" stroke="#fbfbfb" stroke-width="36" stroke-opacity="1"></use></g></g><g><use xlink:href="#aZHuKSmPN" opacity="1" fill="#000000" fill-opacity="0"></use><g><use xlink:href="#aZHuKSmPN" opacity="1" fill-opacity="0" stroke="#fbfbfb" stroke-width="36" stroke-opacity="1"></use></g></g><g><use xlink:href="#c7w4qIzBkX" opacity="1" fill="#000000" fill-opacity="0"></use><g><use xlink:href="#c7w4qIzBkX" opacity="1" fill-opacity="0" stroke="#fbfbfb" stroke-width="24" stroke-opacity="1"></use></g></g><g><use xlink:href="#c1EMQP3kOY" opacity="1" fill="#000000" fill-opacity="0"></use><g><use xlink:href="#c1EMQP3kOY" opacity="1" fill-opacity="0" stroke="#fbfbfb" stroke-width="24" stroke-opacity="1"></use></g></g></g></g></svg>