<?xml version="1.0" encoding="UTF-8" standalone="no"?>
<!DOCTYPE svg PUBLIC "-//W3C//DTD SVG 1.1//EN" "http://www.w3.org/Graphics/SVG/1.1/DTD/svg11.dtd">
<svg version="1.1" xmlns="http://www.w3.org/2000/svg" xmlns:xlink="http://www.w3.org/1999/xlink" preserveAspectRatio="xMidYMid meet" viewBox="7 54.359999999999985 625.9999999999999 531.2800000000001" width="592" height="497.28"><defs><path d="M83.2 153.99L83.2 136.23C83.2 136.23 83.2 136.23 83.2 136.23C83.2 126.42 91.18 118.47 100.96 118.47C103.33 118.47 122.27 118.47 124.64 118.47C134.45 118.47 142.4 126.44 142.4 136.23C142.4 137.42 142.4 143.34 142.4 153.99" id="a5NRIgqkXq"></path><path d="M41.72 160.16C31.92 160.16 24 168.14 24 177.97C24 215.26 24 513.54 24 550.83C24 560.66 31.93 568.64 41.72 568.64C97.37 568.64 542.63 568.64 598.28 568.64C608.08 568.64 616 560.66 616 550.83C616 513.54 616 215.26 616 177.97C616 168.14 608.07 160.16 598.28 160.16C589.25 160.16 544.11 160.16 462.85 160.16C436.96 116.05 422.57 91.54 419.7 86.64C414.74 78.2 402.78 71.36 392.98 71.36C378.45 71.36 262.22 71.36 247.69 71.36C237.94 71.36 225.9 78.2 220.9 86.64C218 91.54 203.51 116.05 177.42 160.16L177.42 160.16C96 160.16 50.76 160.16 41.72 160.16Z" id="b21aIaK3N"></path><path d="M320 237.12C248.07 237.12 189.76 295.43 189.76 367.36C189.76 439.29 248.07 497.6 320 497.6C391.93 497.6 450.24 439.29 450.24 367.36C450.24 295.43 391.93 237.12 320 237.12Z" id="bgwStDIVz"></path><path d="M290.4 290.4C272.49 290.4 243.04 318.46 243.04 337.76" id="b2wm4g1hd"></path><path d="M260.8 142.4L379.2 142.4" id="be0TS8Go5"></path></defs><g><g><use xlink:href="#a5NRIgqkXq" opacity="1" fill="#000000" fill-opacity="0"></use><g><use xlink:href="#a5NRIgqkXq" opacity="1" fill-opacity="0" stroke="#fbfbfb" stroke-width="34" stroke-opacity="1"></use></g></g><g><use xlink:href="#b21aIaK3N" opacity="1" fill="#000000" fill-opacity="0"></use><g><use xlink:href="#b21aIaK3N" opacity="1" fill-opacity="0" stroke="#fbfbfb" stroke-width="34" stroke-opacity="1"></use></g></g><g><use xlink:href="#bgwStDIVz" opacity="1" fill="#000000" fill-opacity="0"></use><g><use xlink:href="#bgwStDIVz" opacity="1" fill-opacity="0" stroke="#fbfbfb" stroke-width="34" stroke-opacity="1"></use></g></g><g><use xlink:href="#b2wm4g1hd" opacity="1" fill="#000000" fill-opacity="0"></use><g><use xlink:href="#b2wm4g1hd" opacity="1" fill-opacity="0" stroke="#fbfbfb" stroke-width="34" stroke-opacity="1"></use></g></g><g><use xlink:href="#be0TS8Go5" opacity="1" fill="#000000" fill-opacity="0"></use><g><use xlink:href="#be0TS8Go5" opacity="1" fill-opacity="0" stroke="#fbfbfb" stroke-width="34" stroke-opacity="1"></use></g></g></g></svg>