<?xml version="1.0" encoding="UTF-8" standalone="no"?>
<!DOCTYPE svg PUBLIC "-//W3C//DTD SVG 1.1//EN" "http://www.w3.org/Graphics/SVG/1.1/DTD/svg11.dtd">
<svg version="1.1" xmlns="http://www.w3.org/2000/svg" xmlns:xlink="http://www.w3.org/1999/xlink" preserveAspectRatio="xMidYMid meet" viewBox="65.68401776541423 165.89677553800885 21.999999999999915 28" width="18" height="24"><defs><path d="M84.39 172.2C83.89 171.69 79.89 167.69 79.39 167.19C79.3 167.1 79.18 167.02 79.06 166.98C78.94 166.92 78.81 166.9 78.68 166.9C77.58 166.9 68.79 166.9 67.69 166.9C67.13 166.89 66.69 167.34 66.68 167.89C66.68 167.89 66.68 167.9 66.68 167.9C66.68 170.1 66.68 187.7 66.68 189.9C66.68 190.45 67.13 190.89 67.68 190.9C67.68 190.9 67.68 190.9 67.69 190.9C69.29 190.9 82.08 190.9 83.68 190.9C84.23 190.9 84.68 190.45 84.68 189.9C84.68 189.9 84.68 189.9 84.68 189.9C84.68 188.2 84.68 174.6 84.68 172.9C84.68 172.77 84.66 172.64 84.61 172.52C84.56 172.4 84.48 172.29 84.39 172.2ZM79.69 170.31L81.27 171.9L79.69 171.9L79.69 170.31ZM82.69 188.9L68.68 188.9L68.68 168.9L77.68 168.9C77.68 171.3 77.68 172.63 77.68 172.9C77.68 173.45 78.13 173.9 78.68 173.9C78.95 173.9 80.28 173.9 82.69 173.9L82.69 188.9Z" id="b1aVWjqrT5"></path><path d="M71.68 178.9C71.13 178.86 70.71 178.39 70.74 177.84C70.78 177.33 71.18 176.93 71.68 176.9C72.48 176.9 78.89 176.9 79.69 176.9C80.24 176.93 80.66 177.41 80.62 177.96C80.59 178.46 80.19 178.87 79.69 178.9C78.08 178.9 72.48 178.9 71.68 178.9Z" id="bGdS6SJTW"></path><path d="M71.68 174.9C71.13 174.86 70.71 174.39 70.74 173.83C70.78 173.33 71.18 172.93 71.68 172.9C71.98 172.9 74.38 172.9 74.68 172.9C75.23 172.86 75.71 173.28 75.74 173.83C75.78 174.39 75.36 174.86 74.81 174.9C74.76 174.9 74.72 174.9 74.68 174.9C74.08 174.9 71.98 174.9 71.68 174.9Z" id="awASqMhGh"></path><path d="M71.68 182.9C71.13 182.9 70.68 182.45 70.68 181.9C70.68 181.34 71.13 180.9 71.68 180.9C72.48 180.9 78.89 180.9 79.69 180.9C80.24 180.9 80.69 181.34 80.69 181.9C80.69 182.45 80.24 182.9 79.69 182.9C78.08 182.9 72.48 182.9 71.68 182.9Z" id="a3od7oEwK"></path><path d="M71.68 186.9C71.13 186.86 70.71 186.39 70.74 185.83C70.78 185.33 71.18 184.93 71.68 184.9C72.48 184.9 78.89 184.9 79.69 184.9C80.24 184.93 80.66 185.41 80.62 185.96C80.59 186.46 80.19 186.86 79.69 186.9C78.08 186.9 72.48 186.9 71.68 186.9Z" id="c1mPFxqyoV"></path></defs><g><g><use xlink:href="#b1aVWjqrT5" opacity="1" fill="#999999" fill-opacity="1"></use><g><use xlink:href="#b1aVWjqrT5" opacity="1" fill-opacity="0" stroke="#000000" stroke-width="1" stroke-opacity="0"></use></g></g><g><use xlink:href="#bGdS6SJTW" opacity="1" fill="#999999" fill-opacity="1"></use><g><use xlink:href="#bGdS6SJTW" opacity="1" fill-opacity="0" stroke="#000000" stroke-width="1" stroke-opacity="0"></use></g></g><g><use xlink:href="#awASqMhGh" opacity="1" fill="#999999" fill-opacity="1"></use><g><use xlink:href="#awASqMhGh" opacity="1" fill-opacity="0" stroke="#000000" stroke-width="1" stroke-opacity="0"></use></g></g><g><use xlink:href="#a3od7oEwK" opacity="1" fill="#999999" fill-opacity="1"></use><g><use xlink:href="#a3od7oEwK" opacity="1" fill-opacity="0" stroke="#000000" stroke-width="1" stroke-opacity="0"></use></g></g><g><use xlink:href="#c1mPFxqyoV" opacity="1" fill="#999999" fill-opacity="1"></use><g><use xlink:href="#c1mPFxqyoV" opacity="1" fill-opacity="0" stroke="#000000" stroke-width="1" stroke-opacity="0"></use></g></g></g></svg>