<?xml version="1.0" encoding="UTF-8" standalone="no"?>
<!DOCTYPE svg PUBLIC "-//W3C//DTD SVG 1.1//EN" "http://www.w3.org/Graphics/SVG/1.1/DTD/svg11.dtd">
<svg version="1.1" xmlns="http://www.w3.org/2000/svg" xmlns:xlink="http://www.w3.org/1999/xlink" preserveAspectRatio="xMidYMid meet" viewBox="29.526315789473703 165.89677553800885 30.95 28" width="26.95" height="24"><defs><path d="M56.15 182.72L56.15 182.72C53.73 173.8 52.38 168.84 52.11 167.85C51.93 167.17 51.23 166.76 50.54 166.94C50.05 167.07 46.07 168.09 45.58 168.22C45.34 167.96 45 167.8 44.64 167.8C43.36 167.8 33.09 167.8 31.81 167.8C31.1 167.8 30.53 168.37 30.53 169.08C30.53 171.14 30.53 187.56 30.53 189.61C30.53 190.32 31.1 190.9 31.81 190.9C33.09 190.9 43.36 190.9 44.64 190.9C45.35 190.9 45.92 190.32 45.92 189.61C45.92 188.93 45.92 185.51 45.92 179.35C47.62 185.68 48.56 189.19 48.75 189.9C48.9 190.47 49.43 190.87 50.03 190.85C50.14 190.86 50.25 190.86 50.36 190.85C50.98 190.68 55.94 189.36 56.56 189.19C56.89 189.1 57.18 188.88 57.35 188.59C57.48 188.3 57.51 187.98 57.43 187.68C57.26 187.02 56.84 185.36 56.15 182.72ZM36.9 188.38L33.05 188.38L33.05 185.82L36.9 185.82L36.9 188.38ZM36.9 183.25L33.05 183.25L33.05 175.55L36.9 175.55L36.9 183.25ZM36.9 172.98L33.05 172.98L33.05 170.42L36.9 170.42L36.9 172.98ZM43.32 188.38L39.47 188.38L39.47 185.82L43.32 185.82L43.32 188.38ZM43.32 183.25L39.47 183.25L39.47 175.55L43.32 175.55L43.32 183.25ZM43.32 172.98L39.47 172.98L39.47 170.42L43.32 170.42L43.32 172.98ZM46.21 170.75L49.93 169.75L50.6 172.23L46.87 173.23L46.21 170.75ZM49.53 183.15L47.54 175.7L51.26 174.7L53.25 182.15L49.53 183.15ZM50.81 188.1L50.15 185.62L53.87 184.62L54.53 187.1L50.81 188.1Z" id="a1MYROfRvm"></path></defs><g><g><use xlink:href="#a1MYROfRvm" opacity="1" fill="#999999" fill-opacity="1"></use><g><use xlink:href="#a1MYROfRvm" opacity="1" fill-opacity="0" stroke="#000000" stroke-width="0" stroke-opacity="0"></use></g></g></g></svg>