<?xml version="1.0" encoding="UTF-8" standalone="no"?>
<!DOCTYPE svg PUBLIC "-//W3C//DTD SVG 1.1//EN" "http://www.w3.org/Graphics/SVG/1.1/DTD/svg11.dtd">
<svg version="1.1" xmlns="http://www.w3.org/2000/svg" xmlns:xlink="http://www.w3.org/1999/xlink" preserveAspectRatio="xMidYMid meet" viewBox="0 0 640 640" width="640" height="640"><defs><path d="M220.22 95C192.52 94.58 186.27 85.63 186.68 50.22C186.89 19.6 193.35 11.89 221.05 11.68C291.25 11.27 361.24 11.47 431.43 11.47C442.89 11.47 454.55 10.43 453.93 27.72C453.3 45.43 440.6 42.3 429.97 42.3C365.82 42.51 301.66 42.3 237.51 42.72C229.8 42.72 217.1 36.68 217.72 53.76C218.35 70.63 231.05 63.76 238.55 63.76C302.7 64.17 366.86 63.96 431.01 63.96C441.85 63.96 454.34 61.05 454.13 79.17C453.93 96.25 442.05 95 430.81 95C395.6 95.21 360.4 95.21 325.41 95.21C290.42 95.21 255.21 95.62 220.22 95Z" id="a2HXRZH8d"></path><path d="M601.4 537C550.16 470.76 499.33 404.32 447.26 338.7C435.8 324.33 431.43 309.96 431.85 292.05C432.89 243.31 432.68 194.56 431.64 145.82C431.43 134.58 440.8 115.41 417.27 114.79C391.02 114.16 402.06 134.99 401.64 146.66C400.39 184.15 403.52 222.06 400.6 259.55C396.85 305.17 404.35 345.58 438.93 378.07C439.76 378.91 438.93 381.2 438.93 383.28C359.36 383.28 280 383.28 196.47 383.28C208.97 366.82 218.14 353.49 228.55 341.2C236.05 332.25 239.59 323.08 239.59 311C239.17 252.89 239.38 194.77 239.38 136.45C239.38 125.41 241.47 113.54 223.55 114.16C205.64 114.58 208.56 127.08 208.56 137.7C208.35 190.82 208.14 243.72 208.76 296.84C208.97 310.38 205.64 321 197.1 332.04C141.28 404.32 85.87 477.22 30.46 549.92C18.38 565.75 11.3 583.03 19.84 602.41C28.59 622.19 47.54 626.36 66.71 628.23C72.54 628.86 78.58 628.44 84.62 628.44C243.76 627.61 402.89 626.57 561.82 625.73C567.86 625.73 573.9 625.73 579.74 625.32C619.73 621.57 635.56 590.32 614.73 555.75C610.77 549.29 605.98 543.04 601.4 537ZM567.03 594.28C484.96 594.49 402.89 594.49 320.83 594.49C320.83 595.11 320.83 595.74 320.83 596.36C239.59 596.36 158.36 596.36 77.12 596.16C67.12 596.16 54.42 599.07 49.21 588.45C43.79 577.83 54.21 569.49 60.04 561.58C92.95 518.05 126.7 474.93 159.4 430.98C166.69 421.19 174.6 417.02 187.1 417.23C276.04 417.65 364.98 417.65 453.93 417.23C465.17 417.23 472.88 420.36 479.75 429.52C513.71 474.51 548.49 518.88 582.86 563.66C587.86 570.54 595.57 577.62 592.03 586.37C587.44 596.99 575.99 594.28 567.03 594.28Z" id="b8OfQUiqNy"></path><path d="M242.72 482.01C241.67 472.22 246.26 465.56 256.46 464.51C265.63 463.68 271.04 469.51 272.5 477.43C274.38 487.64 266.88 492.22 259.59 495.55C250.21 494.51 243.76 490.76 242.72 482.01Z" id="e1wl5YSi6N"></path><path d="M162.11 566.58C152.73 567 145.86 560.95 146.07 551.16C146.28 541.38 152.52 535.75 162.52 536.58C171.27 537.21 175.44 543.25 176.27 551.37C175.64 560.54 170.02 566.16 162.11 566.58Z" id="baoXID5HH"></path><path d="M438.93 478.68C439.35 470.14 444.97 464.93 453.93 464.72C462.88 464.51 468.3 469.93 469.13 478.26C469.96 488.26 463.09 493.05 453.93 495.55C444.97 493.47 438.3 488.47 438.93 478.68Z" id="ajq9EP1i4"></path><path d="M498.08 575.54C490.17 574.49 484.13 568.87 484.96 559.91C485.8 549.71 492.46 545.12 502.04 545.96C511 546.58 514.75 552.83 515.58 559.91C513.91 571.37 507.46 576.58 498.08 575.54Z" id="a3XHmIX5H7"></path><path d="M349.15 551.37C339.16 551.58 333.32 544.92 333.95 534.71C334.57 525.96 339.99 520.55 349.36 521.17C358.53 521.59 362.48 527.63 363.53 535.96C362.69 545.12 357.49 551.37 349.15 551.37Z" id="d1LFrlEBzP"></path></defs><g><g><g><use xlink:href="#a2HXRZH8d" opacity="1" fill="#fbfbfb" fill-opacity="1"></use><g><use xlink:href="#a2HXRZH8d" opacity="1" fill-opacity="0" stroke="#000000" stroke-width="1" stroke-opacity="0"></use></g></g><g><use xlink:href="#b8OfQUiqNy" opacity="1" fill="#fbfbfb" fill-opacity="1"></use><g><use xlink:href="#b8OfQUiqNy" opacity="1" fill-opacity="0" stroke="#000000" stroke-width="1" stroke-opacity="0"></use></g></g><g><use xlink:href="#e1wl5YSi6N" opacity="1" fill="#fbfbfb" fill-opacity="1"></use><g><use xlink:href="#e1wl5YSi6N" opacity="1" fill-opacity="0" stroke="#000000" stroke-width="1" stroke-opacity="0"></use></g></g><g><use xlink:href="#baoXID5HH" opacity="1" fill="#fbfbfb" fill-opacity="1"></use><g><use xlink:href="#baoXID5HH" opacity="1" fill-opacity="0" stroke="#000000" stroke-width="1" stroke-opacity="0"></use></g></g><g><use xlink:href="#ajq9EP1i4" opacity="1" fill="#fbfbfb" fill-opacity="1"></use><g><use xlink:href="#ajq9EP1i4" opacity="1" fill-opacity="0" stroke="#000000" stroke-width="1" stroke-opacity="0"></use></g></g><g><use xlink:href="#a3XHmIX5H7" opacity="1" fill="#fbfbfb" fill-opacity="1"></use><g><use xlink:href="#a3XHmIX5H7" opacity="1" fill-opacity="0" stroke="#000000" stroke-width="1" stroke-opacity="0"></use></g></g><g><use xlink:href="#d1LFrlEBzP" opacity="1" fill="#fbfbfb" fill-opacity="1"></use><g><use xlink:href="#d1LFrlEBzP" opacity="1" fill-opacity="0" stroke="#000000" stroke-width="1" stroke-opacity="0"></use></g></g></g></g></svg>